<?xml version="1.0" ?><svg height="105px" version="1.1" viewBox="0 0 105 105" width="105px" xmlns="http://www.w3.org/2000/svg" xmlns:sketch="http://www.bohemiancoding.com/sketch/ns" xmlns:xlink="http://www.w3.org/1999/xlink"><title/><defs/><g fill="none" fill-rule="evenodd" id="Imoticon" stroke="none" stroke-width="1"><path d="M52,94 C75.1959606,94 94,75.1959606 94,52 C94,28.8040394 75.1959606,10 52,10 C28.8040394,10 10,28.8040394 10,52 C10,75.1959606 28.8040394,94 52,94 Z M52,76.7665772 C46.4893799,76.7665772 41.0000005,82.2460691 41,80.405493 C40.9999997,78.5649168 43.0841064,70.6708739 52,70.6708739 C60.9158936,70.6708739 63,78.6569578 63,80.405493 C62.9999998,82.1540281 57.5106201,76.7665771 52,76.7665772 Z M24.5371094,47.8393558 C25.7993164,49.1713864 29.4853513,42.7732705 32.8808591,39.8168943 C36.2763669,36.8605183 40.8671881,35.8950195 40.2509762,34.2788085 C39.6347643,32.6625976 33.2041015,34.8950195 30.7109376,36.5717773 C28.2177739,38.2485352 23.2749024,46.507325 24.5371094,47.8393558 Z M79.2699643,47.8393558 C78.0077572,49.1713864 74.3217223,42.7732705 70.9262146,39.8168943 C67.5307068,36.8605183 62.9398855,35.8950195 63.5560974,34.2788085 C64.1723094,32.6625976 70.6029721,34.8950195 73.096136,36.5717773 C75.5892998,38.2485352 80.5321712,46.507325 79.2699643,47.8393558 Z M40.5,56 C42.9852815,56 45,53.0898511 45,49.5 C45,45.9101489 42.9852815,43 40.5,43 C38.0147185,43 36,45.9101489 36,49.5 C36,53.0898511 38.0147185,56 40.5,56 Z M63.5,56 C65.9852815,56 68,53.0898511 68,49.5 C68,45.9101489 65.9852815,43 63.5,43 C61.0147185,43 59,45.9101489 59,49.5 C59,53.0898511 61.0147185,56 63.5,56 Z M32,82 C36.970563,82 41,77.970563 41,73 C41,68.029437 36.7749023,67.4272461 32,55.0385742 C27.8496094,67.4272461 23,68.029437 23,73 C23,77.970563 27.029437,82 32,82 Z M32,82" fill="#000000" id="imoticon_22"/></g></svg>